<svg xmlns="http://www.w3.org/2000/svg" viewBox="0 0 1024 1024" role="img" aria-label="Uber Control Pro">
  <defs>
    <linearGradient id="gauge" x1="156" x2="856" y1="320" y2="690" gradientUnits="userSpaceOnUse">
      <stop stop-color="#0D47FF"/>
      <stop offset=".52" stop-color="#00C6FF"/>
      <stop offset="1" stop-color="#00E6C7"/>
    </linearGradient>
    <linearGradient id="silver" x1="360" x2="620" y1="250" y2="455" gradientUnits="userSpaceOnUse">
      <stop stop-color="#fff"/>
      <stop offset=".58" stop-color="#F6FAFF"/>
      <stop offset="1" stop-color="#DCE8F6"/>
    </linearGradient>
    <filter id="glow" x="-30%" y="-30%" width="160%" height="160%">
      <feGaussianBlur stdDeviation="20" result="blur"/>
      <feColorMatrix in="blur" type="matrix" values="0 0 0 0 0 0 0 0 0 .56 0 0 0 0 1 0 0 0 .56 0"/>
      <feMerge><feMergeNode/><feMergeNode in="SourceGraphic"/></feMerge>
    </filter>
    <filter id="shadow" x="-20%" y="-20%" width="140%" height="150%">
      <feDropShadow dx="0" dy="28" stdDeviation="26" flood-color="#001A33" flood-opacity=".45"/>
    </filter>
  </defs>
  <rect width="1024" height="1024" rx="232" fill="#071326"/>
  <g filter="url(#glow)">
    <g filter="url(#shadow)">
      <path fill="url(#gauge)" d="M180 600c0-182 148-330 330-330s330 148 330 330v34c0 34-28 62-62 62H654c-34 0-62-28-62-62v-34c0-51-41-92-92-92s-92 41-92 92v34c0 34-28 62-62 62H242c-34 0-62-28-62-62v-34Z"/>
      <path fill="url(#silver)" d="M288 318c58-56 136-90 224-90 86 0 164 34 222 88l-90 96c-36-34-85-55-138-55-54 0-102 21-138 55l-80-94Z"/>
      <circle cx="512" cy="612" r="80" fill="url(#silver)"/>
      <path d="m512 612 142-172" fill="none" stroke="#061426" stroke-width="46" stroke-linecap="round"/>
    </g>
  </g>
</svg>
