<svg xmlns="http://www.w3.org/2000/svg" viewBox="0 0 1180 360" role="img" aria-label="Uber Control Pro">
  <rect x="36" y="60" width="246" height="246" rx="58" fill="#020617"/>
  <g transform="translate(36 60) scale(.24)"><g filter="url(#softGlow)">
  <path fill="#020617" d="M184 594c0-177 143-320 320-320s320 143 320 320v36c0 31-25 56-56 56H656c-31 0-56-25-56-56v-36c0-53-43-96-96-96s-96 43-96 96v36c0 31-25 56-56 56H240c-31 0-56-25-56-56v-36Z"/>
  <path fill="#FFFFFF" d="M292 318c55-54 132-88 216-88 85 0 162 34 218 90l-92 93c-32-31-76-50-124-50-49 0-93 19-125 51l-93-96Z"/>
  <circle cx="512" cy="594" r="78" fill="#FFFFFF"/>
  <path stroke="#020617" stroke-linecap="round" stroke-width="42" d="m512 594 128-160"/>
</g></g>
  <line x1="326" y1="88" x2="326" y2="260" stroke="#020617" stroke-opacity=".35" stroke-width="2"/>
  <text x="370" y="166" font-family="Montserrat, Inter, ui-sans-serif, system-ui" font-size="92" font-weight="900" letter-spacing="1" fill="#020617">UBER</text>
  <text x="372" y="232" font-family="Montserrat, Inter, ui-sans-serif, system-ui" font-size="42" font-weight="800" letter-spacing="4" fill="#020617">CONTROL PRO</text>
</svg>
