<svg xmlns="http://www.w3.org/2000/svg" viewBox="0 0 1320 420" role="img" aria-label="Uber Control Pro">
  <defs>
    <linearGradient id="gauge" x1="70" x2="410" y1="180" y2="310" gradientUnits="userSpaceOnUse">
      <stop stop-color="#0D47FF"/>
      <stop offset=".55" stop-color="#00C6FF"/>
      <stop offset="1" stop-color="#00E6C7"/>
    </linearGradient>
    <linearGradient id="silver" x1="0" x2="0" y1="0" y2="1">
      <stop stop-color="#fff"/>
      <stop offset=".55" stop-color="#F8FBFF"/>
      <stop offset="1" stop-color="#DDE7F2"/>
    </linearGradient>
    <filter id="glow" x="-25%" y="-30%" width="155%" height="170%">
      <feGaussianBlur stdDeviation="16" result="blur"/>
      <feColorMatrix in="blur" type="matrix" values="0 0 0 0 0 0 0 0 0 .58 0 0 0 0 1 0 0 0 .5 0"/>
      <feMerge><feMergeNode/><feMergeNode in="SourceGraphic"/></feMerge>
    </filter>
    <filter id="textShadow" x="-10%" y="-20%" width="120%" height="140%">
      <feDropShadow dx="0" dy="9" stdDeviation="12" flood-color="#001A33" flood-opacity=".3"/>
    </filter>
  </defs>
  <g filter="url(#glow)">
    <path fill="url(#gauge)" d="M74 250c0-92 75-167 167-167s167 75 167 167v18c0 18-15 33-33 33h-63c-18 0-33-15-33-33v-18c0-26-21-47-47-47s-47 21-47 47v18c0 18-15 33-33 33H107c-18 0-33-15-33-33v-18Z"/>
    <path fill="url(#silver)" d="M126 106c30-28 69-45 113-45 43 0 83 17 112 45l-45 48c-19-17-43-27-69-27-27 0-51 10-69 27l-42-48Z"/>
    <circle cx="241" cy="257" r="41" fill="url(#silver)"/>
    <path d="m241 257 72-88" fill="none" stroke="#061426" stroke-width="24" stroke-linecap="round"/>
  </g>
  <line x1="480" y1="86" x2="480" y2="318" stroke="#9CB7D4" stroke-opacity=".48" stroke-width="2"/>
  <g filter="url(#textShadow)">
    <text x="540" y="207" font-family="Montserrat, Inter, Arial, sans-serif" font-size="112" font-weight="900" letter-spacing="2" fill="url(#silver)">UBER</text>
    <text x="544" y="286" font-family="Montserrat, Inter, Arial, sans-serif" font-size="50" font-weight="800" letter-spacing="6" fill="#0D8CFF">CONTROL</text>
    <text x="876" y="286" font-family="Montserrat, Inter, Arial, sans-serif" font-size="50" font-weight="800" letter-spacing="6" fill="#00D7E8">PRO</text>
  </g>
</svg>
