<svg xmlns="http://www.w3.org/2000/svg" viewBox="0 0 1320 420" role="img" aria-label="Uber Control Pro">
  <g fill="#050B14">
    <path d="M74 250c0-92 75-167 167-167s167 75 167 167v18c0 18-15 33-33 33h-63c-18 0-33-15-33-33v-18c0-26-21-47-47-47s-47 21-47 47v18c0 18-15 33-33 33H107c-18 0-33-15-33-33v-18Z"/>
    <path d="M126 106c30-28 69-45 113-45 43 0 83 17 112 45l-45 48c-19-17-43-27-69-27-27 0-51 10-69 27l-42-48Z"/>
    <circle cx="241" cy="257" r="41"/>
    <path d="m241 257 72-88" fill="none" stroke="#fff" stroke-width="24" stroke-linecap="round"/>
  </g>
  <line x1="480" y1="86" x2="480" y2="318" stroke="#050B14" stroke-opacity=".28" stroke-width="2"/>
  <text x="540" y="207" font-family="Montserrat, Inter, Arial, sans-serif" font-size="112" font-weight="900" letter-spacing="2" fill="#050B14">UBER</text>
  <text x="544" y="286" font-family="Montserrat, Inter, Arial, sans-serif" font-size="50" font-weight="800" letter-spacing="6" fill="#050B14">CONTROL PRO</text>
</svg>
